<?xml version="1.0" encoding="UTF-8" standalone="no"?>
<!-- Created with Inkscape (http://www.inkscape.org/) -->

<svg
   xmlns:dc="http://purl.org/dc/elements/1.1/"
   xmlns:cc="http://creativecommons.org/ns#"
   xmlns:rdf="http://www.w3.org/1999/02/22-rdf-syntax-ns#"
   xmlns:svg="http://www.w3.org/2000/svg"
   xmlns="http://www.w3.org/2000/svg"
   xmlns:sodipodi="http://sodipodi.sourceforge.net/DTD/sodipodi-0.dtd"
   xmlns:inkscape="http://www.inkscape.org/namespaces/inkscape"
   id="svg2985"
   version="1.1"
   inkscape:version="0.48.4 r9939"
   width="150"
   height="57"
   xml:space="preserve"
   sodipodi:docname="header.svg"><metadata
     id="metadata2991"><rdf:RDF><cc:Work
         rdf:about=""><dc:format>image/svg+xml</dc:format><dc:type
           rdf:resource="http://purl.org/dc/dcmitype/StillImage" /><dc:title /></cc:Work></rdf:RDF></metadata><defs
     id="defs2989"><clipPath
       clipPathUnits="userSpaceOnUse"
       id="clipPath3001"><path
         d="m 36,36 523,0 0,523 -523,0 0,-523 z"
         id="path3003"
         inkscape:connector-curvature="0" /></clipPath></defs><sodipodi:namedview
     pagecolor="#ffffff"
     bordercolor="#666666"
     borderopacity="1"
     objecttolerance="10"
     gridtolerance="10"
     guidetolerance="10"
     inkscape:pageopacity="0"
     inkscape:pageshadow="2"
     inkscape:window-width="1280"
     inkscape:window-height="978"
     id="namedview2987"
     showgrid="false"
     inkscape:zoom="7.1752968"
     inkscape:cx="73.154094"
     inkscape:cy="17.419416"
     inkscape:window-x="-4"
     inkscape:window-y="20"
     inkscape:window-maximized="1"
     inkscape:current-layer="g2993" /><g
     id="g2993"
     inkscape:groupmode="layer"
     inkscape:label="1"
     transform="matrix(1.25,0,0,-1.25,0,57)"><g
       id="g3003"
       transform="matrix(0.9097702,0,0,0.9097702,5.4137862,2.0572396)"><path
         d="m 19.514282,32.235595 0,5.391084 -5.391084,0 -0.538373,-0.54189 -2.544804,-4.849194 -0.799247,-0.539652 -9.08041,0 0,-7.404228 4.99146,0 0.4447012,-0.538373 -5.4361612,-10.387659 0,-5.3923625 5.3910837,0 0.538373,0.5418898 2.5451235,4.8491937 0.7992478,0.539652 9.08009,0 0,7.404228 -4.99146,0 -0.444701,0.54189 5.436161,10.385421"
         style="fill:#47bb3a;fill-opacity:1;fill-rule:nonzero;stroke:none"
         id="path3007"
         inkscape:connector-curvature="0" /><path
         d="m 30.049322,13.118556 1.531358,2.923327 0.706535,-2.923327 -2.237893,0 z m 0.14866,8.189728 -6.97711,-13.3349635 4.139782,0 1.012806,1.9405728 4.675597,0 0.462285,-1.9405728 4.141061,0 -3.192194,13.3349635 -4.262227,0"
         style="fill:#616161;fill-opacity:1;fill-rule:nonzero;stroke:none"
         id="path3009"
         inkscape:connector-curvature="0" /><path
         d="m 44.163712,15.074154 -1.768255,0 0,2.696022 1.768255,0 c 1.077705,0 1.487239,-0.539332 1.487239,-1.358721 0,-0.799247 -0.409534,-1.337301 -1.487239,-1.337301 z m 5.54358,1.40252 c 0,3.062076 -2.071969,4.83161 -4.982828,4.83161 l -6.31917,0 0,-13.3362423 3.990163,0 0,3.8888183 0.970286,0 0.791575,0.0026 1.931941,-3.8913763 4.14106,0 -2.462641,4.7056493 c 1.207823,0.769196 1.939614,2.072928 1.939614,3.798983"
         style="fill:#616161;fill-opacity:1;fill-rule:nonzero;stroke:none"
         id="path3011"
         inkscape:connector-curvature="0" /><path
         d="m 50.296817,21.308284 0,-3.535551 3.768931,0 0,-9.8006913 2.271461,0 1.714546,3.2807513 0,6.51994 3.418221,0 1.84818,3.535551 -13.021339,0"
         style="fill:#616161;fill-opacity:1;fill-rule:nonzero;stroke:none"
         id="path3013"
         inkscape:connector-curvature="0" /><path
         d="m 72.644414,24.292994 3.984984,0 0,13.333685 -3.984984,0 0,-13.333685 z"
         style="fill:#616161;fill-opacity:1;fill-rule:nonzero;stroke:none"
         id="path3015"
         inkscape:connector-curvature="0" /><path
         d="m 38.746413,37.620285 -1.790954,-3.419181 1.100084,0 c 1.963272,0 3.205942,-1.253859 3.205942,-3.239509 0,-1.961993 -1.24267,-3.216811 -3.205942,-3.216811 l -1.24235,0 0,6.183937 -3.85525,-7.36043 0,-2.27274 5.36359,0 c 4.32233,0 6.862338,2.604908 6.862338,6.666044 0,3.926223 -2.375043,6.491487 -6.437458,6.65869"
         style="fill:#616161;fill-opacity:1;fill-rule:nonzero;stroke:none"
         id="path3017"
         inkscape:connector-curvature="0" /><path
         d="m 46.237919,24.292994 10.177936,0 0,3.533952 -6.192889,0 0,1.441203 5.693519,0 0,3.383055 -5.693519,0 0,1.441203 6.192889,0 0,3.534272 -10.177936,0 0,-13.333685"
         style="fill:#616161;fill-opacity:1;fill-rule:nonzero;stroke:none"
         id="path3019"
         inkscape:connector-curvature="0" /><path
         d="m 63.501663,29.558116 -1.931941,8.068563 -4.135945,0 3.193153,-13.333685 4.254874,0 6.984463,13.333685 -4.141061,0 -4.223543,-8.068563"
         style="fill:#616161;fill-opacity:1;fill-rule:nonzero;stroke:none"
         id="path3021"
         inkscape:connector-curvature="0" /><path
         d="m 105.81702,37.627958 0,-3.535551 3.76893,0 0,-9.800692 2.27146,0 1.71455,3.280751 0,6.519941 3.4195,0 1.84818,3.535551 -13.02262,0"
         style="fill:#616161;fill-opacity:1;fill-rule:nonzero;stroke:none"
         id="path3023"
         inkscape:connector-curvature="0" /><path
         d="m 84.233502,29.43695 1.528481,2.92077 0.706854,-2.92077 -2.235335,0 z m 0.154734,8.189729 -6.979668,-13.333685 4.133708,0 1.016643,1.94313 4.670482,0 0.463244,-1.94313 4.136265,0 -3.192194,13.333685 -4.24848,0"
         style="fill:#616161;fill-opacity:1;fill-rule:nonzero;stroke:none"
         id="path3025"
         inkscape:connector-curvature="0" /><path
         d="m 100.97901,31.310067 -4.463313,6.316612 -3.93006,0 0,-13.333685 3.983769,0 0,6.772183 4.941584,-6.772183 3.45179,0 0,13.333685 -3.98377,0 0,-6.316612"
         style="fill:#616161;fill-opacity:1;fill-rule:nonzero;stroke:none"
         id="path3027"
         inkscape:connector-curvature="0" /></g></g></svg>