/* XPM */
static char *icon[] = {
/* columns rows colors chars-per-pixel */
"32 32 9 1 ",
"  c #46BA3A",
". c #47BA3A",
"X c #47BB3A",
"o c #47BC3A",
"O c #48BA39",
"+ c #48BB3A",
"@ c #48BB3B",
"# c #48BC39",
"$ c None",
/* pixels */
"$$$$$$$$$$$$$$$$$$$$$$$$$$$$$$$$",
"$$$$$$$$$$$$$$$$$$$XXXXXX$$$$$$$",
"$$$$$$$$$$$$$$$$$$$XXXXXX$$$$$$$",
"$$$$$$$$$$$$$$$$$$XXXXXXX$$$$$$$",
"$$$$$$$$$$$$$$$$$$XXXXXXX$$$$$$$",
"$$$$$$$$$$$$$$$$$@XXXXXXX$$$$$$$",
"$$$$$$$$$$$$$$$$@XXXXXXXX$$$$$$$",
"$$$$$$$XXXXXXXXXXXXXXXXXX$$$$$$$",
"$$$$$$$XXXXXXXXXXXXXXXXX$$$$$$$$",
"$$$$$$$XXXXXXXXXXXXXXXXX$$$$$$$$",
"$$$$$$$XXXXXXXXXXXXXXXX$$$$$$$$$",
"$$$$$$$XXXXXXXXXXXXXXXX$$$$$$$$$",
"$$$$$$$XXXXXXXXXXXXXXX$$$$$$$$$$",
"$$$$$$$XXXXXXXXXXXXXXX$$$$$$$$$$",
"$$$$$$$$$$$@XXXXXXXXX$$$$$$$$$$$",
"$$$$$$$$$$$$XXXXXXXX@$$$$$$$$$$$",
"$$$$$$$$$$$XXXXXXXXX$$$$$$$$$$$$",
"$$$$$$$$$$$XXXXXXXXXo$$$$$$$$$$$",
"$$$$$$$$$$@XXXXXXXXXXXXXX$$$$$$$",
"$$$$$$$$$$XXXXXXXXXXXXXXX$$$$$$$",
"$$$$$$$$$XXXXXXXXXXXXXXXX$$$$$$$",
"$$$$$$$$$XXXXXXXXXXXXXXXX$$$$$$$",
"$$$$$$$$XXXXXXXXXXXXXXXXX$$$$$$$",
"$$$$$$$$XXXXXXXXXXXXXXXXX$$$$$$$",
"$$$$$$$XXXXXXXXXXXXXXXXXX$$$$$$$",
"$$$$$$$XXXXXXXX@$$$$$$$$$$$$$$$$",
"$$$$$$$XXXXXXX@$$$$$$$$$$$$$$$$$",
"$$$$$$$XXXXXXX$$$$$$$$$$$$$$$$$$",
"$$$$$$$XXXXXXX$$$$$$$$$$$$$$$$$$",
"$$$$$$$XXXXXX$$$$$$$$$$$$$$$$$$$",
"$$$$$$$XXXXXX$$$$$$$$$$$$$$$$$$$",
"$$$$$$$$$$$$$$$$$$$$$$$$$$$$$$$$"
};
