/* XPM */
static char *kdamn_xpm[] = {
"32 32 9 1",
" 	c None",
".	c #46BA3A",
"+	c #47BA3A",
"@	c #48BA39",
"#	c #47BB3A",
"$	c #48BB3A",
"%	c #48BB3B",
"&	c #47BC3A",
"*	c #48BC39",
"                                ",
"                   +#####       ",
"                   ######       ",
"                  #######       ",
"                  #######       ",
"                 $#######       ",
"                @########       ",
"       ##################       ",
"       #################        ",
"       ################+        ",
"       ################         ",
"       ###############+         ",
"       ###############          ",
"       ###############          ",
"           %#########           ",
"            ########$           ",
"           .########            ",
"           #########&           ",
"          *##############       ",
"          ###############       ",
"         ################       ",
"         ################       ",
"        #################       ",
"        #################       ",
"       ##################       ",
"       ########@                ",
"       #######$                 ",
"       #######                  ",
"       #######                  ",
"       ######                   ",
"       #####+                   ",
"                                "};
