<?xml version="1.0" encoding="UTF-8" standalone="no"?>
<!-- Created with Inkscape (http://www.inkscape.org/) -->

<svg
   xmlns:dc="http://purl.org/dc/elements/1.1/"
   xmlns:cc="http://creativecommons.org/ns#"
   xmlns:rdf="http://www.w3.org/1999/02/22-rdf-syntax-ns#"
   xmlns:svg="http://www.w3.org/2000/svg"
   xmlns="http://www.w3.org/2000/svg"
   xmlns:sodipodi="http://sodipodi.sourceforge.net/DTD/sodipodi-0.dtd"
   xmlns:inkscape="http://www.inkscape.org/namespaces/inkscape"
   id="svg2985"
   version="1.1"
   inkscape:version="0.48.4 r9939"
   width="512"
   height="512"
   xml:space="preserve"
   sodipodi:docname="da.svg"><metadata
     id="metadata2991"><rdf:RDF><cc:Work
         rdf:about=""><dc:format>image/svg+xml</dc:format><dc:type
           rdf:resource="http://purl.org/dc/dcmitype/StillImage" /><dc:title></dc:title></cc:Work></rdf:RDF></metadata><defs
     id="defs2989"><clipPath
       clipPathUnits="userSpaceOnUse"
       id="clipPath3001"><path
         d="m 36,36 523,0 0,523 -523,0 0,-523 z"
         id="path3003"
         inkscape:connector-curvature="0" /></clipPath></defs><sodipodi:namedview
     pagecolor="#ffffff"
     bordercolor="#666666"
     borderopacity="1"
     objecttolerance="10"
     gridtolerance="10"
     guidetolerance="10"
     inkscape:pageopacity="0"
     inkscape:pageshadow="2"
     inkscape:window-width="1280"
     inkscape:window-height="978"
     id="namedview2987"
     showgrid="false"
     inkscape:zoom="0.89691211"
     inkscape:cx="406.89245"
     inkscape:cy="368.07704"
     inkscape:window-x="-4"
     inkscape:window-y="20"
     inkscape:window-maximized="1"
     inkscape:current-layer="g2993" /><g
     id="g2993"
     inkscape:groupmode="layer"
     inkscape:label="1"
     transform="matrix(1.25,0,0,-1.25,0,512)"><path
       inkscape:connector-curvature="0"
       id="path3007"
       style="fill:#47bb3a;fill-opacity:1;fill-rule:nonzero;stroke:none"
       d="m 326.15792,329.57819 0,71.29275 -71.29276,0 -7.11954,-7.16606 -33.653,-64.12669 -10.5694,-7.13648 -120.081142,0 0,-97.91497 66.008052,0 5.88081,-7.11955 -71.888862,-137.368463 0,-71.30967 71.292752,0 7.11956,7.166056 33.65721,64.126703 10.56941,7.13646 120.07691,0 0,97.914984 -66.00806,0 -5.88082,7.16605 71.88888,137.33888" /></g></svg>