/* XPM */
static char *kdamn_xpm[] = {
/* width height num_colors chars_per_pixel */
"    32    32       16            1",
/* colors */
"` c #485749",
". c #91a22e",
"# c #b2c62b",
"a c #6a7d53",
"b c #a6b721",
"c c #809335",
"d c #586958",
"e c #93a543",
"f c #c9dd39",
"g c #bcd031",
"h c #768947",
"i c #a6b840",
"j c #637454",
"k c #809249",
"l c #506052",
"m c #9bac2d",
/* pixels */
"ffffffffffgggggg#######bbbbbbbbb",
"fajjjjjjjddddddddddddllllllll`lb",
"fadddddddddllllllll````````````b",
"fadddddddddllllllll````````````b",
"fadddddddddllllllll````````````b",
"faddddaemddllllllll````````````b",
"fadddjfffhda.iib##m.cd`````````b",
"faddddmffgggggg#######mh```````b",
"faddddaffggmkjjjacb####bma`````b",
"faddda#ffggddak.jllj.##bbb.d```b",
"faddkffiggged#g#bdl``hbbbbbbc``b",
"fadkff#degggahg##ml```d.bbbbb.lb",
"faafffjdjgggilm###c````jbbbbbbmb",
"fa#ffedddeggghd####hlhmbbbbbbb.b",
"fefffaddddggg#lh####b##bbbbbcd`b",
"f#fffdddddegggklm######bbbcl```b",
"ffffgdddddd#gg#dd######bh``````b",
"ffffgddddddegggelh###ma````````b",
"fffffjdddamgggggjl..j``````````b",
"fffffhdkifggggggmll````````````b",
"fffffi#fffggggiklll````````````b",
"ffffffffffggihlllll````````````b",
"fffffffffgejlllllll````````````b",
"fffffffgeddllllllll````````````b",
"fffff#kddddllllllll````````````b",
"fffihddddddllllllll````````````b",
"fiaddddddddllllllll````````````b",
"fadddddddddllllllll````````````b",
"fadddddddddllllllll````````````b",
"fadddddddddllllllll````````````b",
"fajjjjjjjddddddddddddllllllll`lb",
"ffffffffffgggggg#######bbbbbbbbb"
};
